<svg width="32" height="32" viewBox="0 0 32 32" fill="none" xmlns="http://www.w3.org/2000/svg">
<path d="M23.3067 15.2709L21.5082 13.3439L17.2045 8.78328C17.1403 8.71904 17.076 8.65481 17.0118 8.65481H16.9476C16.8833 8.65481 16.8191 8.65481 16.7549 8.59058H16.6906C16.6264 8.59058 16.5622 8.59058 16.4979 8.65481C16.4337 8.65481 16.3694 8.71904 16.3052 8.78328C16.3052 8.78328 16.3052 8.78328 16.241 8.84751C16.1767 8.91175 16.1767 8.91175 16.1125 8.97598V9.04021C16.1125 9.10445 16.0483 9.16868 16.0483 9.29715V22.7221C16.0483 22.7863 16.0483 22.9148 16.1125 22.979V23.0432C16.1125 23.1075 16.1767 23.1075 16.241 23.1717C16.241 23.1717 16.241 23.2359 16.3052 23.2359C16.3694 23.3002 16.4337 23.3002 16.4979 23.3644C16.5622 23.3644 16.6264 23.4286 16.6906 23.4286H16.7549C16.8191 23.4286 16.8833 23.4286 16.9476 23.3644H17.0118C17.076 23.3002 17.1403 23.3002 17.2045 23.2359L21.5082 18.6753L23.3067 16.7483C23.6921 16.2987 23.6921 15.6563 23.3067 15.2709Z" fill="currentColor"/>
<path d="M28.7666 15.271L22.6644 8.78333C22.279 8.33369 21.5724 8.65486 21.5724 9.23297V11.5454L22.4717 12.4447L24.2702 14.3717C25.1053 15.271 25.1053 16.6199 24.2702 17.5192L22.4717 19.4462L21.5082 20.3455V22.6579C21.5082 23.236 22.2148 23.4929 22.6002 23.1075L28.7024 16.6199C29.0878 16.2987 29.0878 15.6564 28.7666 15.271Z" fill="currentColor"/>
<path fill-rule="evenodd" clip-rule="evenodd" d="M4.25 8.59058C4.25 8.17636 4.58579 7.84058 5 7.84058H13.5431C13.9573 7.84058 14.2931 8.17636 14.2931 8.59058C14.2931 9.00479 13.9573 9.34058 13.5431 9.34058H5C4.58579 9.34058 4.25 9.00479 4.25 8.59058Z" fill="currentColor"/>
<path fill-rule="evenodd" clip-rule="evenodd" d="M4.25 12.1235C4.25 11.7093 4.58579 11.3735 5 11.3735H13.5431C13.9573 11.3735 14.2931 11.7093 14.2931 12.1235C14.2931 12.5377 13.9573 12.8735 13.5431 12.8735H5C4.58579 12.8735 4.25 12.5377 4.25 12.1235Z" fill="currentColor"/>
<path fill-rule="evenodd" clip-rule="evenodd" d="M6.25666 8.43936C6.34019 8.03366 6.73679 7.77248 7.14249 7.85601C8.35903 8.10647 9.50027 8.68038 10.3489 9.48291C11.1986 10.2864 11.788 11.3554 11.788 12.5731C11.788 14.0279 10.9275 15.152 9.79731 15.8779C8.6716 16.6009 7.20941 16.9845 5.77081 16.9845L5.7592 16.9845C5.70604 16.9845 5.6535 16.9845 5.61155 16.983C5.5561 16.981 5.48263 16.9756 5.3962 16.954C5.3607 16.9452 5.33154 16.9356 5.31815 16.9312C5.30874 16.9281 5.30428 16.9266 5.30095 16.9255C5.29718 16.9242 5.29484 16.9235 5.28838 16.9214C5.27642 16.9175 5.25217 16.91 5.2035 16.8978C4.80165 16.7974 4.55733 16.3902 4.65779 15.9883C4.75826 15.5865 5.16546 15.3422 5.5673 15.4426C5.63098 15.4585 5.67952 15.4723 5.71902 15.4844C5.73266 15.4844 5.7496 15.4845 5.77081 15.4845C6.96579 15.4845 8.1372 15.1614 8.98669 14.6158C9.83173 14.0731 10.288 13.3665 10.288 12.5731C10.288 11.8638 9.94605 11.1664 9.31829 10.5728C8.68956 9.97821 7.80743 9.52437 6.84001 9.3252C6.43431 9.24167 6.17313 8.84507 6.25666 8.43936Z" fill="currentColor"/>
<path fill-rule="evenodd" clip-rule="evenodd" d="M4.86527 15.6942C5.16369 15.4069 5.63848 15.4159 5.92574 15.7144L12.5419 22.5874C12.8291 22.8858 12.8201 23.3606 12.5217 23.6479C12.2232 23.9351 11.7484 23.9261 11.4612 23.6277L4.84507 16.7546C4.55781 16.4562 4.56686 15.9814 4.86527 15.6942Z" fill="currentColor"/>
</svg>
