<svg width="32" height="32" viewBox="0 0 32 32" fill="none" xmlns="http://www.w3.org/2000/svg">
<path fill-rule="evenodd" clip-rule="evenodd" d="M4.25 5.0011C4.25 4.58689 4.58579 4.2511 5 4.2511H13.75C14.1642 4.2511 14.5 4.58689 14.5 5.0011V13.8561C14.5 14.2703 14.1642 14.6061 13.75 14.6061H5C4.58579 14.6061 4.25 14.2703 4.25 13.8561V5.0011ZM5.75 5.7511V13.1061H13V5.7511H5.75Z" fill="currentColor"/>
<path fill-rule="evenodd" clip-rule="evenodd" d="M8.125 10.6921H10.625V8.16309H8.125V10.6921Z" fill="currentColor"/>
<path fill-rule="evenodd" clip-rule="evenodd" d="M18 5.0011C18 4.58689 18.3358 4.2511 18.75 4.2511H27.5C27.9142 4.2511 28.25 4.58689 28.25 5.0011V13.8561C28.25 14.2703 27.9142 14.6061 27.5 14.6061H18.75C18.3358 14.6061 18 14.2703 18 13.8561V5.0011ZM19.5 5.7511V13.1061H26.75V5.7511H19.5Z" fill="currentColor"/>
<path fill-rule="evenodd" clip-rule="evenodd" d="M21.875 10.6921H24.375V8.16309H21.875V10.6921Z" fill="currentColor"/>
<path fill-rule="evenodd" clip-rule="evenodd" d="M4.25 18.7151C4.25 18.3009 4.58579 17.9651 5 17.9651H13.75C14.1642 17.9651 14.5 18.3009 14.5 18.7151V27.5701C14.5 27.9843 14.1642 28.3201 13.75 28.3201H5C4.58579 28.3201 4.25 27.9843 4.25 27.5701V18.7151ZM5.75 19.4651V26.8201H13V19.4651H5.75Z" fill="currentColor"/>
<path fill-rule="evenodd" clip-rule="evenodd" d="M8.125 24.4072H10.625V21.8782H8.125V24.4072Z" fill="currentColor"/>
<path fill-rule="evenodd" clip-rule="evenodd" d="M24.2234 18.715C24.2234 18.3008 24.5592 17.965 24.9734 17.965H27.4994C27.9136 17.965 28.2494 18.3008 28.2494 18.715V20.081C28.2494 20.4952 27.9136 20.831 27.4994 20.831C27.0852 20.831 26.7494 20.4952 26.7494 20.081V19.465H24.9734C24.5592 19.465 24.2234 19.1292 24.2234 18.715Z" fill="currentColor"/>
<path fill-rule="evenodd" clip-rule="evenodd" d="M17.7852 18.715C17.7852 18.3008 18.1209 17.965 18.5352 17.965H19.7502C20.1644 17.965 20.5002 18.3008 20.5002 18.715C20.5002 19.1292 20.1644 19.465 19.7502 19.465H18.5352C18.1209 19.465 17.7852 19.1292 17.7852 18.715Z" fill="currentColor"/>
<path fill-rule="evenodd" clip-rule="evenodd" d="M18.7499 22.3105C19.1641 22.3105 19.4999 22.6463 19.4999 23.0605V26.8205H22.5339C22.9481 26.8205 23.2839 27.1563 23.2839 27.5705C23.2839 27.9848 22.9481 28.3205 22.5339 28.3205H18.7499C18.3357 28.3205 17.9999 27.9848 17.9999 27.5705V23.0605C17.9999 22.6463 18.3357 22.3105 18.7499 22.3105Z" fill="currentColor"/>
<path fill-rule="evenodd" clip-rule="evenodd" d="M27.4998 24.3362C27.914 24.3362 28.2498 24.672 28.2498 25.0862V27.5702C28.2498 27.9844 27.914 28.3202 27.4998 28.3202C27.0855 28.3202 26.7498 27.9844 26.7498 27.5702V25.0862C26.7498 24.672 27.0855 24.3362 27.4998 24.3362Z" fill="currentColor"/>
<path fill-rule="evenodd" clip-rule="evenodd" d="M21.875 24.4072H24.375V21.8782H21.875V24.4072Z" fill="currentColor"/>
</svg>
