<svg width="24" height="24" viewBox="0 0 24 24" fill="none" xmlns="http://www.w3.org/2000/svg">
<path fill-rule="evenodd" clip-rule="evenodd" d="M13.097 3.96094C13.2331 3.90386 13.383 3.88821 13.528 3.91596C13.673 3.94371 13.8066 4.01362 13.912 4.11694L20.775 10.8569C20.846 10.9267 20.9025 11.01 20.941 11.1019C20.9795 11.1937 20.9994 11.2923 20.9994 11.3919C20.9994 11.4915 20.9795 11.5902 20.941 11.682C20.9025 11.7739 20.846 11.8571 20.775 11.9269L13.912 18.6529C13.8065 18.7564 13.6728 18.8263 13.5277 18.854C13.3826 18.8817 13.2325 18.866 13.0963 18.8087C12.9601 18.7515 12.8439 18.6553 12.7622 18.5322C12.6804 18.4091 12.6369 18.2647 12.637 18.1169V14.5439C10.721 14.3459 9.01097 14.9649 7.61697 15.9339C6.06397 17.0139 4.95097 18.4989 4.44897 19.6479C4.38102 19.8029 4.2627 19.9302 4.11321 20.0094C3.96373 20.0886 3.79187 20.1149 3.62554 20.0841C3.45921 20.0533 3.30818 19.9672 3.19698 19.8397C3.08577 19.7122 3.02093 19.5509 3.01297 19.3819C2.76297 13.9859 6.13197 8.30194 12.637 7.89594V4.65294C12.6369 4.5051 12.6805 4.36054 12.7624 4.23741C12.8442 4.11429 12.9606 4.01811 13.097 3.96094ZM14.137 6.44094V8.62294C14.137 8.82185 14.058 9.01262 13.9173 9.15327C13.7766 9.29392 13.5859 9.37294 13.387 9.37294C8.60197 9.37294 5.59597 12.6149 4.74697 16.5009C5.34472 15.8239 6.02079 15.2204 6.76097 14.7029C8.55197 13.4579 10.881 12.6539 13.528 13.1609C13.6992 13.1937 13.8537 13.2851 13.9648 13.4194C14.076 13.5538 14.1368 13.7226 14.137 13.8969V16.3319L19.179 11.3909L14.137 6.44094Z" fill="currentColor"/>
</svg>
