<svg width="24" height="24" viewBox="0 0 24 24" fill="none" xmlns="http://www.w3.org/2000/svg">
<path fill-rule="evenodd" clip-rule="evenodd" d="M5.05005 5.70001C5.05163 4.97115 5.34187 4.2726 5.85726 3.75722C6.37264 3.24184 7.07119 2.9516 7.80005 2.95001H14.8C15.01 2.95001 15.21 3.03801 15.352 3.19201L18.852 6.99201C18.9794 7.13051 19.0501 7.31184 19.05 7.50001V18.2C19.0485 18.9289 18.7582 19.6274 18.2428 20.1428C17.7275 20.6582 17.0289 20.9484 16.3 20.95H7.80005C7.07119 20.9484 6.37264 20.6582 5.85726 20.1428C5.34187 19.6274 5.05163 18.9289 5.05005 18.2V5.70001ZM7.80005 4.45001C7.11405 4.45001 6.55005 5.01401 6.55005 5.70001V18.2C6.55005 18.886 7.11405 19.45 7.80005 19.45H16.3C16.986 19.45 17.55 18.886 17.55 18.2V8.25001H14.8C14.6011 8.25001 14.4104 8.17099 14.2697 8.03034C14.1291 7.88969 14.05 7.69892 14.05 7.50001V4.45001H7.80005ZM15.55 5.62201L16.59 6.75001H15.55V5.62201ZM8.05005 10.7C8.05005 10.5011 8.12907 10.3103 8.26972 10.1697C8.41037 10.029 8.60114 9.95001 8.80005 9.95001H14.3C14.499 9.95001 14.6897 10.029 14.8304 10.1697C14.971 10.3103 15.05 10.5011 15.05 10.7C15.05 10.8989 14.971 11.0897 14.8304 11.2303C14.6897 11.371 14.499 11.45 14.3 11.45H8.80005C8.60114 11.45 8.41037 11.371 8.26972 11.2303C8.12907 11.0897 8.05005 10.8989 8.05005 10.7ZM8.80005 12.95C8.60114 12.95 8.41037 13.029 8.26972 13.1697C8.12907 13.3103 8.05005 13.5011 8.05005 13.7C8.05005 13.8989 8.12907 14.0897 8.26972 14.2303C8.41037 14.371 8.60114 14.45 8.80005 14.45H12.3C12.499 14.45 12.6897 14.371 12.8304 14.2303C12.971 14.0897 13.05 13.8989 13.05 13.7C13.05 13.5011 12.971 13.3103 12.8304 13.1697C12.6897 13.029 12.499 12.95 12.3 12.95H8.80005Z" fill="currentColor"/>
</svg>
